# xmcd
#
# Track frame offsets:
#	150
#	11007
#	24094
#
# Disc length: 476 seconds
#
# Revision: 1
# Processed by: cddbd v1.5.2PL0 Copyright (c) Steve Scherf et al.
# Submitted via: EasyCDDAExtractor 10.2.0.1
#
DISCID=1301da03
DTITLE=Sammy Stone - In The Garden
DYEAR=2003
DGENRE=Gospel
TTITLE0=America
TTITLE1=In The Garden
TTITLE2=Lead Me, Guide Me
EXTD=
EXTT0=
EXTT1=
EXTT2=
PLAYORDER=
